<?xml version="1.0" encoding="UTF-8" standalone="no"?>
<!-- Created with Inkscape (http://www.inkscape.org/) -->

<svg
   width="105mm"
   height="148mm"
   viewBox="0 0 105 148"
   version="1.1"
   id="svg5"
   inkscape:version="1.2.1 (9c6d41e410, 2022-07-14)"
   sodipodi:docname="one_truck_problem.svg"
   inkscape:export-filename="one_truck_problem2.png"
   inkscape:export-xdpi="96"
   inkscape:export-ydpi="96"
   xmlns:inkscape="http://www.inkscape.org/namespaces/inkscape"
   xmlns:sodipodi="http://sodipodi.sourceforge.net/DTD/sodipodi-0.dtd"
   xmlns:xlink="http://www.w3.org/1999/xlink"
   xmlns="http://www.w3.org/2000/svg"
   xmlns:svg="http://www.w3.org/2000/svg">
  <sodipodi:namedview
     id="namedview7"
     pagecolor="#ffffff"
     bordercolor="#000000"
     borderopacity="0.25"
     inkscape:showpageshadow="2"
     inkscape:pageopacity="0.0"
     inkscape:pagecheckerboard="true"
     inkscape:deskcolor="#d1d1d1"
     inkscape:document-units="mm"
     showgrid="true"
     inkscape:zoom="1.4142136"
     inkscape:cx="278.60007"
     inkscape:cy="357.79603"
     inkscape:window-width="1920"
     inkscape:window-height="1017"
     inkscape:window-x="4472"
     inkscape:window-y="142"
     inkscape:window-maximized="1"
     inkscape:current-layer="layer2">
    <inkscape:grid
       type="xygrid"
       id="grid9"
       originx="0"
       originy="0" />
  </sodipodi:namedview>
  <defs
     id="defs2">
    <rect
       x="18.384776"
       y="514.77374"
       width="53.740115"
       height="14.849242"
       id="rect13011" />
    <rect
       x="323.1478"
       y="333.04729"
       width="60.104076"
       height="20.506097"
       id="rect12790" />
    <rect
       x="172.53405"
       y="449.01281"
       width="57.275649"
       height="12.727922"
       id="rect12660" />
    <rect
       x="236.88077"
       y="175.36248"
       width="92.630988"
       height="17.67767"
       id="rect12586" />
    <rect
       x="239.92419"
       y="176.38695"
       width="84.400208"
       height="20.862973"
       id="rect12441" />
    <rect
       x="71.123771"
       y="348.98064"
       width="62.588918"
       height="25.604557"
       id="rect12367" />
    <color-profile
       name="Black---White"
       xlink:href="../../../../../Windows/system32/spool/drivers/color/BlackWhite.icc"
       id="color-profile13174" />
    <marker
       style="overflow:visible"
       id="Arrow1L"
       refX="0"
       refY="0"
       orient="auto-start-reverse"
       inkscape:stockid="Arrow1L"
       markerWidth="8.75"
       markerHeight="5"
       viewBox="0 0 8.75 5"
       inkscape:isstock="true"
       inkscape:collect="always"
       preserveAspectRatio="xMidYMid">
      <path
         style="fill:context-stroke;fill-rule:evenodd;stroke:none"
         d="M 0,0 5,-5 -12.5,0 5,5 Z"
         id="arrow1L"
         transform="scale(-0.5)" />
    </marker>
    <marker
       style="overflow:visible"
       id="Arrow5"
       refX="0"
       refY="0"
       orient="auto-start-reverse"
       inkscape:stockid="Arrow5"
       markerWidth="5.8874264"
       markerHeight="6.6094756"
       viewBox="0 0 5.8874262 6.6094758"
       inkscape:isstock="true"
       inkscape:collect="always"
       preserveAspectRatio="xMidYMid">
      <path
         transform="scale(0.5)"
         style="fill:context-stroke;fill-rule:evenodd;stroke:context-stroke;stroke-width:1pt"
         d="m 6,0 c -3,1 -7,3 -9,5 0,0 0,-4 2,-5 -2,-1 -2,-5 -2,-5 2,2 6,4 9,5 z"
         id="path8893" />
    </marker>
    <marker
       style="overflow:visible"
       id="TriangleStart"
       refX="0"
       refY="0"
       orient="auto-start-reverse"
       inkscape:stockid="TriangleStart"
       markerWidth="5.3244081"
       markerHeight="6.155385"
       viewBox="0 0 5.3244081 6.1553851"
       inkscape:isstock="true"
       inkscape:collect="always"
       preserveAspectRatio="xMidYMid">
      <path
         transform="scale(0.5)"
         style="fill:context-stroke;fill-rule:evenodd;stroke:context-stroke;stroke-width:1pt"
         d="M 5.77,0 -2.88,5 V -5 Z"
         id="path135" />
    </marker>
  </defs>
  <g
     inkscape:groupmode="layer"
     id="layer2"
     inkscape:label="Ebene 2">
    <rect
       style="fill:#f2f2f2;stroke-width:1.065;stroke-dasharray:none"
       id="rect12157"
       width="104.62899"
       height="147.28349"
       x="0.25090885"
       y="0.31472903"
       ry="2.7755579e-17" />
    <path
       style="fill:#f2f2f2;stroke-width:1.065;stroke-dasharray:none"
       id="path12260"
       d="m 51.183141,76.461651 c 0.586285,-0.453425 1.192627,-0.878446 1.791735,-1.314606 0.525326,-0.321773 0.962482,-0.764805 1.440383,-1.150208 0.357944,-0.40473 0.761357,-0.742989 1.192273,-1.066794 0.588965,-0.497965 1.186632,-0.971889 1.89035,-1.298266 0.09021,0.0074 0.188455,-0.01569 0.270637,0.02225 0.07713,0.03561 0.251468,0.223552 0.176252,0.184068 -1.075309,-0.564483 -2.093338,-1.237692 -3.187454,-1.7648 -0.101282,-0.04879 0.113692,0.19558 0.150633,0.30176 0.102282,0.294007 0.122756,0.583626 0.162258,0.889648 0.07219,0.834797 0.065,1.673844 0.05546,2.510906 -0.0058,0.718619 -0.01058,1.437241 -0.01667,2.155862 -0.02117,0.529879 -0.01352,1.051269 0.08592,1.572438 0.119276,0.392448 0.06408,0.770403 0.0072,1.165368 0,0 3.504031,1.849184 3.504031,1.849184 v 0 c 0.06239,-0.430182 0.169968,-0.853528 0.05137,-1.285754 -0.10246,-0.503695 -0.186118,-0.991905 -0.138184,-1.511295 -0.0019,-0.719847 7.94e-4,-1.439672 0.0067,-2.159497 7.94e-4,-0.85321 0.01471,-1.70769 -0.05112,-2.559167 -0.01418,-0.157281 -0.09435,-1.281588 -0.199261,-1.358267 -1.352235,-0.988378 -2.541484,-2.677187 -4.15867,-2.168404 -0.694733,0.382527 -1.33427,0.839719 -1.942823,1.346608 -0.434485,0.327789 -0.838409,0.680844 -1.208902,1.079926 -0.458034,0.395676 -0.905421,0.808262 -1.417425,1.135044 -0.593775,0.438089 -1.177611,0.891045 -1.799983,1.288534 0,0 3.335172,2.135473 3.335172,2.135473 z" />
    <text
       xml:space="preserve"
       transform="matrix(0.26458333,0,0,0.26458333,38.540266,-33.114694)"
       id="text12365"
       style="white-space:pre;shape-inside:url(#rect12367);display:inline;fill:#ff0000;stroke-width:4.0252;stroke-dasharray:none"><tspan
         x="71.123047"
         y="359.92843"
         id="tspan13232">Tour 1</tspan></text>
    <text
       xml:space="preserve"
       transform="scale(0.26458333)"
       id="text12439"
       style="white-space:pre;shape-inside:url(#rect12441);display:inline;fill:#008000;stroke-width:4.0252;stroke-dasharray:none" />
    <text
       xml:space="preserve"
       transform="matrix(0.26458333,0,0,0.26458333,-49.952675,37.979)"
       id="text12584"
       style="white-space:pre;shape-inside:url(#rect12586);display:inline;fill:#008000;stroke-width:4.0252;stroke-dasharray:none"><tspan
         x="236.88086"
         y="186.31125"
         id="tspan13234">Tour 2</tspan></text>
    <text
       xml:space="preserve"
       transform="scale(0.26458333)"
       id="text12658"
       style="white-space:pre;shape-inside:url(#rect12660);display:inline;fill:#000080;stroke-width:4.0252;stroke-dasharray:none" />
    <text
       xml:space="preserve"
       style="font-size:3.175px;fill:#000080;stroke-width:1.065;stroke-dasharray:none"
       x="77.6418"
       y="91.486359"
       id="text12736"><tspan
         sodipodi:role="line"
         id="tspan12734"
         style="stroke-width:1.065"
         x="77.6418"
         y="91.486359">Tour 3</tspan></text>
    <text
       xml:space="preserve"
       transform="scale(0.26458333)"
       id="text12788"
       style="white-space:pre;shape-inside:url(#rect12790);display:inline;fill:#000000;stroke-width:4.0252;stroke-dasharray:none" />
    <text
       xml:space="preserve"
       style="font-size:3.175px;fill:#000000;stroke-width:1.065;stroke-dasharray:none"
       x="4.6772161"
       y="137.51016"
       id="text12929"><tspan
         sodipodi:role="line"
         id="tspan12927"
         style="stroke-width:1.065"
         x="4.6772161"
         y="137.51016">Depot1</tspan></text>
    <path
       style="fill:#000000;stroke-width:1.065;stroke-dasharray:none"
       d="M 6.735192,117.30459 6.1739261,107.76307"
       id="path13087" />
  </g>
  <g
     inkscape:label="Ebene 1"
     inkscape:groupmode="layer"
     id="layer1">
    <path
       sodipodi:type="star"
       style="fill:#666666;stroke-width:0.264583"
       id="path329"
       inkscape:flatsided="false"
       sodipodi:sides="5"
       sodipodi:cx="88.665321"
       sodipodi:cy="120.37903"
       sodipodi:r1="0.72204447"
       sodipodi:r2="0.36102217"
       sodipodi:arg1="-2.3127436"
       sodipodi:arg2="-1.6844251"
       inkscape:rounded="0"
       inkscape:randomized="0"
       d="m 88.177418,119.84677 0.446969,0.17356 0.396371,-0.2698 -0.02695,0.47872 0.379087,0.2936 -0.463624,0.12231 -0.162083,0.45126 -0.259587,-0.40314 -0.47926,-0.0147 0.303191,-0.37146 z"
       inkscape:transform-center-x="-0.21287449"
       inkscape:transform-center-y="0.43552626"
       transform="matrix(8.4156043,0,0,9.7999796,-739.08538,-1053.3187)" />
    <rect
       style="fill:#ff0000;stroke-width:2.27218"
       id="rect335"
       width="4.738925"
       height="5.9703546"
       x="42.545475"
       y="52.65937"
       ry="2.4906808e-16" />
    <rect
       style="fill:#ff2a2a;stroke-width:2.27218"
       id="rect335-9"
       width="4.738925"
       height="5.9703546"
       x="65.537048"
       y="70.795319"
       ry="2.4906808e-16" />
    <rect
       style="fill:#000080;stroke-width:2.36018"
       id="rect335-9-8"
       width="5.1131024"
       height="5.9703546"
       x="65.332596"
       y="53.118938"
       ry="2.4906808e-16" />
    <rect
       style="fill:#000080;stroke-width:2.27218"
       id="rect335-9-4"
       width="4.738925"
       height="5.9703546"
       x="74.908913"
       y="123.8623"
       ry="2.4906808e-16" />
    <rect
       style="fill:#008000;stroke-width:2.27218"
       id="rect335-9-88"
       width="4.738925"
       height="5.9703546"
       x="4.7236028"
       y="123.75744"
       ry="2.4906808e-16" />
    <rect
       style="fill:#008000;stroke-width:2.27218"
       id="rect335-9-46"
       width="4.738925"
       height="5.9703546"
       x="47.177273"
       y="52.640034"
       ry="2.4906808e-16" />
    <path
       style="display:inline;fill:none;fill-rule:evenodd;stroke:#000000;stroke-width:2.27218px;stroke-linecap:butt;stroke-linejoin:miter;stroke-opacity:1"
       d="m 25.989021,113.27223 2e-6,1.4e-4"
       id="path1217"
       inkscape:connector-type="polyline"
       inkscape:connector-curvature="0" />
    <path
       style="fill:none;fill-rule:evenodd;stroke:#000000;stroke-width:2.27218px;stroke-linecap:butt;stroke-linejoin:miter;stroke-opacity:1"
       d="m 49.546735,55.625211 v 0"
       id="path1219"
       inkscape:connector-type="polyline"
       inkscape:connector-curvature="0"
       inkscape:connection-start="#rect335-9-46"
       inkscape:connection-end="#rect335-9-46" />
    <path
       style="fill:#1a1a1a;stroke-width:2.27218;marker-start:url(#TriangleStart)"
       d="M 84.734776,55.999393 H 55.207636 Z"
       id="path2020" />
    <path
       style="fill:#1a1a1a;stroke-width:2.27218;marker-start:url(#TriangleStart)"
       d="M 81.089447,55.601312 58.123896,56.000066"
       id="path2302" />
    <path
       style="fill:#008000;stroke-width:2.03231"
       d="M 76.350526,56.397342 71.97616,55.99926"
       id="path2467" />
    <path
       style="fill:#008000;stroke-width:2.27577;stroke-dasharray:none;marker-start:url(#Arrow5)"
       d="M 90.931859,56.397342 H 55.207636"
       id="path2471" />
    <path
       style="fill:#008000;stroke-width:2.27575;stroke-dasharray:none"
       d="m 58.852962,55.999393 3.645303,3.98022"
       id="path2521" />
    <path
       style="fill:#008000;stroke-width:0.321248;stroke-dasharray:none"
       d="M 58.797231,74.776655 57.798085,73.908559"
       id="path2523" />
    <path
       style="fill:#008000;stroke-width:2.27575;stroke-dasharray:none"
       d="M 81.818483,55.601312 H 58.852962"
       id="path2525" />
    <path
       style="fill:#008000;stroke-width:2.27575;stroke-dasharray:none"
       d="m 62.498265,50.029029 -3.280772,4.776319"
       id="path2527" />
    <path
       style="fill:#008000;stroke-width:2.27575;stroke-dasharray:none"
       d="M 63.227326,60.775712 59.217493,54.805348"
       id="path2529" />
    <path
       style="fill:#008000;stroke-width:1.29106;stroke-dasharray:none;marker-start:url(#Arrow1L)"
       d="M 60.096124,76.802199 H 56.898851"
       id="path2531" />
    <path
       style="fill:#008000;stroke-width:1.29106;stroke-dasharray:none"
       d="M 52.552555,75.210703 40.562777,80.824381 Z"
       id="path3341" />
    <path
       style="fill:#008000;stroke-width:1.29106;stroke-dasharray:none"
       d="m 33.918443,77.033698 8.093101,-0.05779"
       id="path3345" />
    <g
       id="g8033"
       transform="matrix(6.0396127,-10.108475,10.298557,7.2498776,-1611.1865,202.37253)">
      <path
         id="rect4923"
         style="fill:#008000;stroke-width:0.940378;stroke-dasharray:none"
         d="m 85.427344,107.29474 v 0.26614 h 4.080888 v -0.26614 z" />
    </g>
    <path
       sodipodi:type="star"
       style="fill:#008000;stroke-width:1.065;stroke-dasharray:none"
       id="path6503"
       inkscape:flatsided="false"
       sodipodi:sides="3"
       sodipodi:cx="89.197578"
       sodipodi:cy="106.98387"
       sodipodi:r1="0.56801909"
       sodipodi:r2="0.28400949"
       sodipodi:arg1="-0.67474094"
       sodipodi:arg2="0.37245661"
       inkscape:rounded="0"
       inkscape:randomized="0"
       d="m 89.641127,106.62903 -0.179012,0.45819 -0.179011,0.45819 -0.3073,-0.38412 -0.307299,-0.38412 0.486311,-0.0741 z"
       inkscape:transform-center-x="1.1665579"
       inkscape:transform-center-y="0.00044579255"
       transform="matrix(-6.4164979,-5.6073014,5.1354878,-7.0060024,60.111013,1324.5342)" />
    <g
       id="g8037"
       transform="matrix(8.2185569,0,0,8.9736231,-630.28139,-907.47851)">
      <path
         id="path8039"
         style="fill:#ff0000;stroke-width:0.578347;stroke-dasharray:none"
         d="m 82.588924,107.69844 -0.129628,0.17097 1.609666,1.04607 0.129628,-0.17097 z" />
      <path
         id="path8803"
         style="fill:#000080;stroke-width:1.11581;stroke-dasharray:none"
         d="m 85.357733,108.13772 -0.286416,0.0679 0.643198,5.18645 0.286416,-0.0679 z" />
    </g>
    <path
       sodipodi:type="star"
       style="fill:#000080;stroke-width:1.065;stroke-dasharray:none"
       id="path8805"
       inkscape:flatsided="false"
       sodipodi:sides="3"
       sodipodi:cx="89.197578"
       sodipodi:cy="106.98387"
       sodipodi:r1="0.56801909"
       sodipodi:r2="0.28400949"
       sodipodi:arg1="-0.67474094"
       sodipodi:arg2="0.37245661"
       inkscape:rounded="0"
       inkscape:randomized="0"
       d="m 89.641127,106.62903 -0.179012,0.45819 -0.179011,0.45819 -0.3073,-0.38412 -0.307299,-0.38412 0.486311,-0.0741 z"
       inkscape:transform-center-x="0.4331552"
       inkscape:transform-center-y="0.87009848"
       transform="matrix(-4.3169364,-7.7464096,6.857402,-4.7788481,-272.54924,1314.903)" />
    <path
       sodipodi:type="star"
       style="fill:#ff0000;stroke-width:1.065;stroke-dasharray:none"
       id="path8807"
       inkscape:flatsided="false"
       sodipodi:sides="3"
       sodipodi:cx="89.257324"
       sodipodi:cy="107.006"
       sodipodi:r1="0.56801909"
       sodipodi:r2="0.28400949"
       sodipodi:arg1="-0.67474094"
       sodipodi:arg2="0.37245661"
       inkscape:rounded="0"
       inkscape:randomized="0"
       d="m 89.700873,106.65116 -0.179012,0.45819 -0.179012,0.45819 -0.307299,-0.38412 -0.307299,-0.38413 0.486311,-0.0741 z"
       inkscape:transform-center-x="0.4449169"
       inkscape:transform-center-y="-0.91099715"
       transform="matrix(5.2653453,-5.5788491,4.0726712,5.4651122,-845.08675,-18.380767)" />
  </g>
</svg>
